<?xml version="1.0" encoding="utf-8" standalone="yes"?><svg xmlns:xlink="http://www.w3.org/1999/xlink" xmlns="http://www.w3.org/2000/svg" focusable="false" preserveAspectRatio="xMinYMin" width="831" height="250" viewBox="-474.65 -121.98 831.24  250.17000000000002" style=""><path d="M0.0,-7.5  C-68.5,0.0  -137.1,-58.2  -205.6,-58.2   -137.1,-52.2  -68.5,10.5  0.0,7.5  Z" stroke-width="2" stroke="#cc0000" stroke-dasharray="" stroke-linecap="" stroke-opacity="1" fill="#cc0000" fill-opacity="1" visibility="visible" style="opacity: 1;"/><path d="M0.0,-7.5  C-68.5,0.0  -137.1,58.2  -205.6,58.2   -137.1,64.2  -68.5,10.5  0.0,7.5  Z" stroke-width="2" stroke="#509dc0" stroke-dasharray="" stroke-linecap="" stroke-opacity="1" fill="#509dc0" fill-opacity="1" visibility="visible" style="opacity: 1;"/><path d="M0.0,-7.5  C-68.5,0.0  -137.1,19.4  -205.6,19.4   -137.1,25.4  -68.5,10.5  0.0,7.5  Z" stroke-width="2" stroke="#38761d" stroke-dasharray="" stroke-linecap="" stroke-opacity="1" fill="#38761d" fill-opacity="1" visibility="visible" style="opacity: 1;"/><path d="M0.0,-7.5  C-68.5,0.0  -137.1,-19.4  -205.6,-19.4   -137.1,-13.4  -68.5,10.5  0.0,7.5  Z" stroke-width="2" stroke="#e69138" stroke-dasharray="" stroke-linecap="" stroke-opacity="1" fill="#e69138" fill-opacity="1" visibility="visible" style="opacity: 1;"/><path d="M0.0,-7.5  C68.5,0.0  137.1,0.0  205.6,0.0   137.1,6.0  68.5,10.5  0.0,7.5  Z" stroke-width="2" stroke="#f1a327" stroke-dasharray="" stroke-linecap="" stroke-opacity="1" fill="#f1a327" fill-opacity="1" visibility="visible" style="opacity: 1;"/><path d="M0.0,-7.5  C68.5,0.0  137.1,77.6  205.6,77.6   137.1,83.6  68.5,10.5  0.0,7.5  Z" stroke-width="2" stroke="#3d85c6" stroke-dasharray="" stroke-linecap="" stroke-opacity="1" fill="#3d85c6" fill-opacity="1" visibility="visible" style="opacity: 1;"/><path d="M0.0,-7.5  C68.5,0.0  137.1,38.8  205.6,38.8   137.1,44.8  68.5,10.5  0.0,7.5  Z" stroke-width="2" stroke="#93c47d" stroke-dasharray="" stroke-linecap="" stroke-opacity="1" fill="#93c47d" fill-opacity="1" visibility="visible" style="opacity: 1;"/><path d="M0.0,-7.5  C68.5,0.0  137.0,-38.8  205.5,-38.8   137.0,-32.8  68.5,10.5  0.0,7.5  Z" stroke-width="2" stroke="#ff0000" stroke-dasharray="" stroke-linecap="" stroke-opacity="1" fill="#ff0000" fill-opacity="1" visibility="visible" style="opacity: 1;"/><path d="M0.0,-7.5  C68.5,0.0  137.1,-77.6  205.6,-77.6   137.1,-71.6  68.5,10.5  0.0,7.5  Z" stroke-width="2" stroke="#674ea7" stroke-dasharray="" stroke-linecap="" stroke-opacity="1" fill="#674ea7" fill-opacity="1" visibility="visible" style="opacity: 1;"/><rect width="351" height="38" rx="0" ry="0" x="-175" y="-18" stroke-width="1" stroke="#FF9933" stroke-dasharray="" stroke-linecap="" fill="#CC0033" stroke-opacity="0.4" fill-opacity="0.4" visibility="hidden" style="opacity: 0;"/><path d="M0.0,-0.5  C0.0,0.0  0.0,0.0  0.0,0.0   0.0,0.4  0.0,0.7  0.0,0.5  Z" stroke-width="1" stroke="#CC0033" stroke-dasharray="" stroke-linecap="" stroke-opacity="0.4" fill-opacity="0.4" visibility="hidden" style="opacity: 0;"/><path d="M-243.3,-0.5  C-162.2,0.0  -81.1,0.0  0.0,0.0   -81.1,0.4  -162.2,0.7  -243.3,0.5  Z" stroke-width="1" stroke="#CC0033" stroke-dasharray="" stroke-linecap="" stroke-opacity="0.4" fill-opacity="0.4" visibility="hidden" style="opacity: 0;"/><g preserveAspectRatio="none" focusable="true" width="100" height="100" transform="translate(-173.59,-16.80) scale(1.00,1.00)" test-id="1" visibility="visible" style="opacity: 1;"><rect width="353" height="40" rx="12" ry="12" x="-3" y="-3" stroke-width="1" stroke="#ff46ff" stroke-dasharray="" stroke-linecap="" fill="#ffffff" stroke-opacity="0" fill-opacity="0" style="cursor: default;"/><rect width="347" height="34" rx="10" ry="10" x="0" y="0" stroke-width="2" stroke="#ff00ff" stroke-dasharray="" stroke-linecap="" fill="#FFFFFF" visibility="visible" style="cursor: default; opacity: 1;"/><text font-family="Verdana" font-size="13.4" font-style="normal" font-weight="bold" fill="#000000" visibility="visible" style="cursor: default; opacity: 1;" y="8.40" x="8.73"><tspan dy="1em" x="8.73">Οι αιτίες επιρροής της μόδας στους εφήβους</tspan></text><g preserveAspectRatio="none" focusable="true" width="0" height="22"/></g><g preserveAspectRatio="none" focusable="true" width="100" height="100" transform="translate(203.59,-91.98) scale(1.00,1.00)" test-id="2" visibility="visible" style="opacity: 1;"><rect width="65" height="35" rx="10" ry="10" x="-3" y="-3" stroke-width="1" stroke="#ad94ed" stroke-dasharray="" stroke-linecap="" fill="#ffffff" stroke-opacity="0" fill-opacity="0" style="cursor: move;"/><rect width="59" height="29" rx="9" ry="9" x="0" y="0" stroke-width="2" stroke="#674ea7" stroke-dasharray="" stroke-linecap="" fill="#ffffff" style="cursor: move; opacity: 1;" visibility="visible"/><text font-family="Verdana" font-size="12.1" font-style="normal" font-weight="normal" fill="#000000" visibility="visible" style="cursor: move; opacity: 1;" y="7.20" x="7.49"><tspan dy="1em" x="7.49">Μίμηση</tspan></text><g preserveAspectRatio="none" focusable="true" width="0" height="19"/><ellipse width="6" height="6" rx="3" ry="3" cx="5" cy="5" stroke-width="2" stroke="#674ea7" stroke-dasharray="" stroke-linecap="" fill="#cbb2ff" visibility="hidden" style="cursor: default; opacity: 0;"/></g><g preserveAspectRatio="none" focusable="true" width="100" height="100" transform="translate(203.45,-53.19) scale(1.00,1.00)" test-id="3" visibility="visible" style="opacity: 1;"><rect width="85" height="35" rx="10" ry="10" x="-3" y="-3" stroke-width="1" stroke="#ff4646" stroke-dasharray="" stroke-linecap="" fill="#ffffff" stroke-opacity="0" fill-opacity="0" style="cursor: move;"/><rect width="79" height="29" rx="9" ry="9" x="0" y="0" stroke-width="2" stroke="#ff0000" stroke-dasharray="" stroke-linecap="" fill="#ffffff" style="cursor: move; opacity: 1;" visibility="visible"/><text font-family="Verdana" font-size="12.1" font-style="normal" font-weight="normal" fill="#000000" visibility="visible" style="cursor: move; opacity: 1;" y="7.20" x="7.49"><tspan dy="1em" x="7.49">Διαφήμιση</tspan></text><g preserveAspectRatio="none" focusable="true" width="0" height="19"/><ellipse width="6" height="6" rx="3" ry="3" cx="5" cy="5" stroke-width="2" stroke="#ff0000" stroke-dasharray="" stroke-linecap="" fill="#ff6464" visibility="hidden" style="cursor: default; opacity: 0;"/></g><g preserveAspectRatio="none" focusable="true" width="100" height="100" transform="translate(203.59,24.40) scale(1.00,1.00)" test-id="4" visibility="visible" style="opacity: 1;"><rect width="123" height="35" rx="10" ry="10" x="-3" y="-3" stroke-width="1" stroke="#d9ffc3" stroke-dasharray="" stroke-linecap="" fill="#ffffff" stroke-opacity="0" fill-opacity="0" style="cursor: move;"/><rect width="117" height="29" rx="9" ry="9" x="0" y="0" stroke-width="2" stroke="#93c47d" stroke-dasharray="" stroke-linecap="" fill="#ffffff" style="cursor: move; opacity: 1;" visibility="visible"/><text font-family="Verdana" font-size="12.1" font-style="normal" font-weight="normal" fill="#000000" visibility="visible" style="cursor: move; opacity: 1;" y="7.20" x="7.49"><tspan dy="1em" x="7.49">Κοινωνικοποίηση</tspan></text><g preserveAspectRatio="none" focusable="true" width="0" height="19"/><ellipse width="6" height="6" rx="3" ry="3" cx="5" cy="5" stroke-width="2" stroke="#93c47d" stroke-dasharray="" stroke-linecap="" fill="#f7ffe1" visibility="hidden" style="cursor: default; opacity: 0;"/></g><g preserveAspectRatio="none" focusable="true" width="100" height="100" transform="translate(-329.02,-33.79) scale(1.00,1.00)" test-id="7" visibility="visible" style="opacity: 1;"><rect width="131" height="35" rx="10" ry="10" x="-3" y="-3" stroke-width="1" stroke="#ffd77e" stroke-dasharray="" stroke-linecap="" fill="#ffffff" stroke-opacity="0" fill-opacity="0" style="cursor: move;"/><rect width="125" height="29" rx="9" ry="9" x="0" y="0" stroke-width="2" stroke="#e69138" stroke-dasharray="" stroke-linecap="" fill="#ffffff" style="cursor: move; opacity: 1;" visibility="visible"/><text font-family="Verdana" font-size="12.1" font-style="normal" font-weight="normal" fill="#000000" visibility="visible" style="cursor: move; opacity: 1;" y="7.20" x="7.49"><tspan dy="1em" x="7.49">Πρότυπα – είδωλα</tspan></text><g preserveAspectRatio="none" focusable="true" width="0" height="19"/><ellipse width="6" height="6" rx="3" ry="3" cx="5" cy="5" stroke-width="2" stroke="#e69138" stroke-dasharray="" stroke-linecap="" fill="#fff59c" visibility="hidden" style="cursor: default; opacity: 0;"/></g><g preserveAspectRatio="none" focusable="true" width="100" height="100" transform="translate(-410.12,5.00) scale(1.00,1.00)" test-id="8" visibility="visible" style="opacity: 1;"><rect width="213" height="35" rx="10" ry="10" x="-3" y="-3" stroke-width="1" stroke="#7ebc63" stroke-dasharray="" stroke-linecap="" fill="#ffffff" stroke-opacity="0" fill-opacity="0" style="cursor: move;"/><rect width="207" height="29" rx="9" ry="9" x="0" y="0" stroke-width="2" stroke="#38761d" stroke-dasharray="" stroke-linecap="" fill="#ffffff" style="cursor: move; opacity: 1;" visibility="visible"/><text font-family="Verdana" font-size="12.1" font-style="normal" font-weight="normal" fill="#000000" visibility="visible" style="cursor: move; opacity: 1;" y="7.20" x="7.49"><tspan dy="1em" x="7.49">Ψυχολογική ανάγκη για αλλαγή</tspan></text><g preserveAspectRatio="none" focusable="true" width="0" height="19"/><ellipse width="6" height="6" rx="3" ry="3" cx="5" cy="5" stroke-width="2" stroke="#38761d" stroke-dasharray="" stroke-linecap="" fill="#9cda81" visibility="hidden" style="cursor: default; opacity: 0;"/></g><g preserveAspectRatio="none" focusable="true" width="100" height="100" transform="translate(203.59,-14.40) scale(1.00,1.00)" test-id="9" visibility="visible" style="opacity: 1;"><rect width="83" height="35" rx="10" ry="10" x="-3" y="-3" stroke-width="1" stroke="#ffe96d" stroke-dasharray="" stroke-linecap="" fill="#ffffff" stroke-opacity="0" fill-opacity="0" style="cursor: move;"/><rect width="77" height="29" rx="9" ry="9" x="0" y="0" stroke-width="2" stroke="#f1a327" stroke-dasharray="" stroke-linecap="" fill="#ffffff" style="cursor: move; opacity: 1;" visibility="visible"/><text font-family="Verdana" font-size="12.1" font-style="normal" font-weight="normal" fill="#000000" visibility="visible" style="cursor: move; opacity: 1;" y="7.20" x="7.49"><tspan dy="1em" x="7.49">Ξενομανία</tspan></text><g preserveAspectRatio="none" focusable="true" width="0" height="19"/><ellipse width="6" height="6" rx="3" ry="3" cx="5" cy="5" stroke-width="2" stroke="#f1a327" stroke-dasharray="" stroke-linecap="" fill="#ffff8b" visibility="hidden" style="cursor: default; opacity: 0;"/></g><g preserveAspectRatio="none" focusable="true" width="100" height="100" transform="translate(-444.65,43.79) scale(1.00,1.00)" test-id="12" visibility="visible" style="opacity: 1;"><rect width="247" height="35" rx="10" ry="10" x="-3" y="-3" stroke-width="1" stroke="#96e3ff" stroke-dasharray="" stroke-linecap="" fill="#ffffff" stroke-opacity="0" fill-opacity="0" style="cursor: move;"/><rect width="241" height="29" rx="9" ry="9" x="0" y="0" stroke-width="2" stroke="#509dc0" stroke-dasharray="" stroke-linecap="" fill="#ffffff" style="cursor: move; opacity: 1;" visibility="visible"/><text font-family="Verdana" font-size="12.1" font-style="normal" font-weight="normal" fill="#000000" visibility="visible" style="cursor: move; opacity: 1;" y="7.20" x="7.49"><tspan dy="1em" x="7.49">Διαμόρφωση προσωπικής ταυτότητας</tspan></text><g preserveAspectRatio="none" focusable="true" width="0" height="19"/><ellipse width="6" height="6" rx="3" ry="3" cx="5" cy="5" stroke-width="2" stroke="#509dc0" stroke-dasharray="" stroke-linecap="" fill="#b4ffff" visibility="hidden" style="cursor: default; opacity: 0;"/></g><g preserveAspectRatio="none" focusable="true" width="100" height="100" transform="translate(203.59,63.19) scale(1.00,1.00)" test-id="13" visibility="visible" style="opacity: 1;"><rect width="75" height="35" rx="10" ry="10" x="-3" y="-3" stroke-width="1" stroke="#83cbff" stroke-dasharray="" stroke-linecap="" fill="#ffffff" stroke-opacity="0" fill-opacity="0" style="cursor: move;"/><rect width="69" height="29" rx="9" ry="9" x="0" y="0" stroke-width="2" stroke="#3d85c6" stroke-dasharray="" stroke-linecap="" fill="#ffffff" style="cursor: move; opacity: 1;" visibility="visible"/><text font-family="Verdana" font-size="12.1" font-style="normal" font-weight="normal" fill="#000000" visibility="visible" style="cursor: move; opacity: 1;" y="7.20" x="7.49"><tspan dy="1em" x="7.49">Προβολή</tspan></text><g preserveAspectRatio="none" focusable="true" width="0" height="19"/><ellipse width="6" height="6" rx="3" ry="3" cx="5" cy="5" stroke-width="2" stroke="#3d85c6" stroke-dasharray="" stroke-linecap="" fill="#a1e9ff" visibility="hidden" style="cursor: default; opacity: 0;"/></g><g preserveAspectRatio="none" focusable="true" width="100" height="100" transform="translate(-312.11,-72.58) scale(1.00,1.00)" test-id="14" visibility="visible" style="opacity: 1;"><rect width="115" height="35" rx="10" ry="10" x="-3" y="-3" stroke-width="1" stroke="#ff4646" stroke-dasharray="" stroke-linecap="" fill="#ffffff" stroke-opacity="0" fill-opacity="0" style="cursor: move;"/><rect width="109" height="29" rx="9" ry="9" x="0" y="0" stroke-width="2" stroke="#cc0000" stroke-dasharray="" stroke-linecap="" fill="#ffffff" style="cursor: move; opacity: 1;" visibility="visible"/><text font-family="Verdana" font-size="12.1" font-style="normal" font-weight="normal" fill="#000000" visibility="visible" style="cursor: move; opacity: 1;" y="7.20" x="7.49"><tspan dy="1em" x="7.49">Εντυπωσιασμός</tspan></text><g preserveAspectRatio="none" focusable="true" width="0" height="19"/><ellipse width="6" height="6" rx="3" ry="3" cx="5" cy="5" stroke-width="2" stroke="#cc0000" stroke-dasharray="" stroke-linecap="" fill="#ff6464" visibility="hidden" style="cursor: default; opacity: 0;"/></g><rect width="50" height="6" rx="0" ry="0" x="-291" y="-3" stroke-width="1" stroke="#FF9933" stroke-dasharray="" stroke-linecap="" fill="#CC0033" stroke-opacity="0.4" fill-opacity="0.4" visibility="hidden" style="opacity: 0;"/></svg>